<?xml version="1.0" encoding="UTF-8" standalone="yes"?>
<!DOCTYPE svg PUBLIC "-//W3C//DTD SVG 1.1//EN" "http://www.w3.org/Graphics/SVG/1.1/DTD/svg11.dtd">

<svg width="1440" height="1000" viewBox="0 0 1440 1000" xmlns="http://www.w3.org/2000/svg" xmlns:xlink="http://www.w3.org/1999/xlink" version="1.1" baseProfile="full">
    <g transform="scale(1,-1) translate(0,-1000)">
        <path d="M 1.000000 1.000000 L 25.282593 38.306893 L 126.460062 115.348939 L 128.568989 114.640982 L 130.554316 113.823226 L 132.416043 112.895671 L 134.154171 111.858317 L 135.768700 110.711163 L 137.259631 109.454209 L 138.626962 108.087455 L 139.870696 106.610900 L 140.990831 105.024545 L 141.987368 103.328387 L 142.860308 101.522428 L 143.609651 99.606667 L 144.235396 97.581104 L 144.737544 95.445737 L 145.371051 90.845595 L 43.899247 13.803549 Z M 108.432076 97.026619 L 111.078798 95.446867 L 113.463372 93.650968 L 115.585799 91.638920 L 117.446082 89.410722 L 119.044222 86.966371 L 120.380220 84.305865 L 121.454077 81.429202 L 122.265796 78.336380 L 141.176785 92.685185 L 140.394958 95.935525 L 139.337197 98.916817 L 138.003499 101.629062 L 136.393863 104.072263 L 134.508286 106.246422 L 132.346768 108.151542 L 129.909306 109.787625 L 127.195898 111.154673 Z M 34.259794 40.661569 L 36.320135 40.955903 L 37.607852 40.781144 L 38.527647 40.256863 L 39.079522 39.383058 L 39.263479 38.159726 L 39.189896 37.423890 L 100.190712 84.149486 L 97.780847 85.786722 L 95.407777 87.019247 Z M 41.323820 34.627712 L 42.804696 34.052841 L 43.862460 33.137648 L 44.497116 31.882128 L 44.708667 30.286279 L 106.003817 77.232626 L 104.679316 79.532113 L 102.913305 81.574059 Z M 46.842592 27.416518 L 48.056723 27.204966 L 48.902933 26.717474 L 49.399622 25.954044 L 49.565185 24.914675 L 49.326040 23.645359 L 48.608598 21.897747 L 109.535831 68.476176 L 108.616038 71.437917 L 107.622657 73.994947 Z M 14.539385 15.275221 L 18.733651 9.977201 L 41.618155 16.746894 L 43.807276 18.811839 L 45.370926 20.591640 L 46.309113 22.086304 L 46.621841 23.295835 L 46.502268 24.059266 L 46.143547 24.583549 L 45.527284 24.887082 L 44.635083 24.988259 L 43.374963 24.827296 L 41.728534 24.344405 L 39.695789 23.539585 L 37.276722 22.412832 L 39.208298 24.422589 L 40.587990 26.257578 L 41.415802 27.917805 L 41.691739 29.403276 L 41.498583 30.626604 L 40.919111 31.500409 L 39.934931 32.024693 L 38.527643 32.199453 L 37.460681 32.043089 L 35.952221 31.573996 L 31.610783 29.697610 L 33.638938 31.624586 L 35.087615 33.431980 L 35.956818 35.119800 L 36.246551 36.688054 L 36.136176 37.396296 L 35.805049 37.902183 L 35.234778 38.205716 L 34.406961 38.306893 L 32.723732 38.127534 L 30.985323 37.589456 L 29.191725 36.692656 L 27.342934 35.437132 Z" transform="scale(1.000000,1.000000) translate(495.385667,268.534155)" opacity="1.000000"></path>
    </g>
</svg>